HIERARCHY
ROOT Hips
{
	OFFSET 0.000000 83.214638 0.000000
	CHANNELS 6 Xposition Yposition Zposition Xrotation Yrotation Zrotation
	JOINT Pelvis
	{
		OFFSET 0.000000 0.000000 0.000000
		CHANNELS 3 Xrotation Yrotation Zrotation
		JOINT LeftUpLeg
		{
			OFFSET 8.479700 -4.795502 -0.379100
			CHANNELS 3 Xrotation Yrotation Zrotation
			JOINT LeftLeg
			{
				OFFSET 0.024144 -32.555107 0.112900
				CHANNELS 3 Xrotation Yrotation Zrotation
				JOINT LeftFoot
				{
					OFFSET -0.024144 -32.638630 -3.012600
					CHANNELS 3 Xrotation Yrotation Zrotation
					JOINT LeftToeBase
					{
						OFFSET 0.970200 -13.225400 11.864200
						CHANNELS 3 Xrotation Yrotation Zrotation
						End Site
						{
							OFFSET 0.000000 12.319262 0.000000
						}
					}
					JOINT LFootTongue
					{
						OFFSET 1.142400 -1.059800 6.665200
						CHANNELS 3 Xrotation Yrotation Zrotation
						End Site
						{
							OFFSET 0.000000 12.319262 0.000000
						}
					}
				}
				JOINT LeftPantLeg
				{
					OFFSET 0.918482 -16.533964 -2.284700
					CHANNELS 3 Xrotation Yrotation Zrotation
					End Site
					{
						OFFSET 0.350399 24.744368 0.000000
					}
				}
			}
		}
		JOINT RightUpLeg
		{
			OFFSET -8.479700 -4.795502 -0.379100
			CHANNELS 3 Xrotation Yrotation Zrotation
			JOINT RightLeg
			{
				OFFSET -0.023144 -32.555092 0.112900
				CHANNELS 3 Xrotation Yrotation Zrotation
				JOINT RightFoot
				{
					OFFSET 0.023144 -32.638641 -3.012700
					CHANNELS 3 Xrotation Yrotation Zrotation
					JOINT RightToeBase
					{
						OFFSET -0.970200 -13.225400 11.864200
						CHANNELS 3 Xrotation Yrotation Zrotation
						End Site
						{
							OFFSET 0.000000 12.319244 0.000000
						}
					}
					JOINT RFootTongue
					{
						OFFSET -1.142200 -1.059800 6.665200
						CHANNELS 3 Xrotation Yrotation Zrotation
						End Site
						{
							OFFSET 0.000000 12.319243 0.000000
						}
					}
				}
				JOINT RightPantLeg
				{
					OFFSET -0.919482 -16.533978 -2.284800
					CHANNELS 3 Xrotation Yrotation Zrotation
					End Site
					{
						OFFSET -0.350400 24.744419 0.000000
					}
				}
			}
		}
	}
	JOINT Spine
	{
		OFFSET 0.000000 7.722000 1.166200
		CHANNELS 3 Xrotation Yrotation Zrotation
		JOINT Spine1
		{
			OFFSET 0.000000 12.024101 0.248800
			CHANNELS 3 Xrotation Yrotation Zrotation
			JOINT Spine2
			{
				OFFSET 0.000000 11.502998 -0.491200
				CHANNELS 3 Xrotation Yrotation Zrotation
				JOINT Neck
				{
					OFFSET 0.000000 18.430702 -3.123100
					CHANNELS 3 Xrotation Yrotation Zrotation
					JOINT Head
					{
						OFFSET 0.000000 9.051102 1.034000
						CHANNELS 3 Xrotation Yrotation Zrotation
						JOINT HairB
						{
							OFFSET 0.208400 24.786102 24.822300
							CHANNELS 3 Xrotation Yrotation Zrotation
							End Site
							{
								OFFSET 0.000000 32.263779 0.000000
							}
						}
						JOINT HairA
						{
							OFFSET -7.081100 24.428299 23.196600
							CHANNELS 3 Xrotation Yrotation Zrotation
							End Site
							{
								OFFSET 0.000000 32.263779 0.000000
							}
						}
						JOINT Hat
						{
							OFFSET 16.728800 15.048294 -15.439601
							CHANNELS 3 Xrotation Yrotation Zrotation
							End Site
							{
								OFFSET 0.000000 32.263779 0.000000
							}
						}
					}
				}
				JOINT LeftShoulder
				{
					OFFSET 6.197800 13.665199 -4.064700
					CHANNELS 3 Xrotation Yrotation Zrotation
					JOINT LeftArm
					{
						OFFSET 7.778100 -0.187103 -1.709300
						CHANNELS 3 Xrotation Yrotation Zrotation
						JOINT LeftForeArm
						{
							OFFSET 22.049376 0.000000 0.000000
							CHANNELS 3 Xrotation Yrotation Zrotation
							JOINT LeftHand
							{
								OFFSET 23.009392 0.000000 0.000000
								CHANNELS 3 Xrotation Yrotation Zrotation
								JOINT LeftHandThumb1
								{
									OFFSET 3.507191 -2.063065 3.133727
									CHANNELS 3 Xrotation Yrotation Zrotation
									JOINT LeftHandThumb2
									{
										OFFSET 3.101337 -1.790558 1.790558
										CHANNELS 3 Xrotation Yrotation Zrotation
										JOINT LeftHandThumb3
										{
											OFFSET 3.058640 -1.765907 1.765906
											CHANNELS 3 Xrotation Yrotation Zrotation
											End Site
											{
												OFFSET -0.415260 3.926476 -0.049563
											}
										}
									}
								}
								JOINT LeftHandIndex1
								{
									OFFSET 11.334419 -0.901459 3.706815
									CHANNELS 3 Xrotation Yrotation Zrotation
									JOINT LeftHandIndex2
									{
										OFFSET 3.283112 0.000000 0.000000
										CHANNELS 3 Xrotation Yrotation Zrotation
										JOINT LeftHandIndex3
										{
											OFFSET 3.323853 0.000000 0.000000
											CHANNELS 3 Xrotation Yrotation Zrotation
											End Site
											{
												OFFSET -1.135597 3.097809 0.402452
											}
										}
									}
								}
								JOINT LeftHandMiddle1
								{
									OFFSET 11.335861 0.000000 0.000000
									CHANNELS 3 Xrotation Yrotation Zrotation
									JOINT LeftHandMiddle2
									{
										OFFSET 3.410492 0.000000 0.000000
										CHANNELS 3 Xrotation Yrotation Zrotation
										JOINT LeftHandMiddle3
										{
											OFFSET 3.312172 0.000000 0.000000
											CHANNELS 3 Xrotation Yrotation Zrotation
											End Site
											{
												OFFSET -1.150200 3.080154 0.400270
											}
										}
									}
								}
								JOINT LeftHandRing1
								{
									OFFSET 11.514786 -0.013176 -3.003090
									CHANNELS 3 Xrotation Yrotation Zrotation
									JOINT LeftHandRing2
									{
										OFFSET 3.053307 0.000000 0.000000
										CHANNELS 3 Xrotation Yrotation Zrotation
										JOINT LeftHandRing3
										{
											OFFSET 3.295807 0.000000 0.000000
											CHANNELS 3 Xrotation Yrotation Zrotation
											End Site
											{
												OFFSET -1.281006 3.013344 0.375733
											}
										}
									}
								}
								JOINT LeftHandPinky1
								{
									OFFSET 10.518692 -0.960396 -5.730441
									CHANNELS 3 Xrotation Yrotation Zrotation
									JOINT LeftHandPinky2
									{
										OFFSET 2.861649 0.000000 0.000000
										CHANNELS 3 Xrotation Yrotation Zrotation
										JOINT LeftHandPinky3
										{
											OFFSET 2.863380 0.000000 0.000000
											CHANNELS 3 Xrotation Yrotation Zrotation
											End Site
											{
												OFFSET -0.843597 2.711159 0.369971
											}
										}
									}
								}
							}
							JOINT LSleeve
							{
								OFFSET 6.676277 -0.344902 -1.011730
								CHANNELS 3 Xrotation Yrotation Zrotation
								End Site
								{
									OFFSET 0.000000 14.885353 0.000000
								}
							}
						}
					}
				}
				JOINT RightShoulder
				{
					OFFSET -6.197800 13.665199 -4.064700
					CHANNELS 3 Xrotation Yrotation Zrotation
					JOINT RightArm
					{
						OFFSET -7.778100 -0.187103 -1.709300
						CHANNELS 3 Xrotation Yrotation Zrotation
						JOINT RightForeArm
						{
							OFFSET -22.049376 0.000000 0.000000
							CHANNELS 3 Xrotation Yrotation Zrotation
							JOINT RightHand
							{
								OFFSET -23.009392 0.000000 0.000000
								CHANNELS 3 Xrotation Yrotation Zrotation
								JOINT RightHandThumb1
								{
									OFFSET -3.507191 -2.063065 3.133727
									CHANNELS 3 Xrotation Yrotation Zrotation
									JOINT RightHandThumb2
									{
										OFFSET -3.101337 -1.790558 1.790558
										CHANNELS 3 Xrotation Yrotation Zrotation
										JOINT RightHandThumb3
										{
											OFFSET -3.058640 -1.765907 1.765906
											CHANNELS 3 Xrotation Yrotation Zrotation
											End Site
											{
												OFFSET 0.415260 3.926476 -0.049563
											}
										}
									}
								}
								JOINT RightHandIndex1
								{
									OFFSET -11.334419 -0.901459 3.706815
									CHANNELS 3 Xrotation Yrotation Zrotation
									JOINT RightHandIndex2
									{
										OFFSET -3.283112 0.000000 0.000000
										CHANNELS 3 Xrotation Yrotation Zrotation
										JOINT RightHandIndex3
										{
											OFFSET -3.323853 0.000000 0.000000
											CHANNELS 3 Xrotation Yrotation Zrotation
											End Site
											{
												OFFSET 1.135597 3.097809 0.402452
											}
										}
									}
								}
								JOINT RightHandMiddle1
								{
									OFFSET -11.335861 0.000000 0.000000
									CHANNELS 3 Xrotation Yrotation Zrotation
									JOINT RightHandMiddle2
									{
										OFFSET -3.410492 0.000000 0.000000
										CHANNELS 3 Xrotation Yrotation Zrotation
										JOINT RightHandMiddle3
										{
											OFFSET -3.312172 0.000000 0.000000
											CHANNELS 3 Xrotation Yrotation Zrotation
											End Site
											{
												OFFSET 1.150200 3.080154 0.400270
											}
										}
									}
								}
								JOINT RightHandRing1
								{
									OFFSET -11.514786 -0.013176 -3.003090
									CHANNELS 3 Xrotation Yrotation Zrotation
									JOINT RightHandRing2
									{
										OFFSET -3.053307 0.000000 0.000000
										CHANNELS 3 Xrotation Yrotation Zrotation
										JOINT RightHandRing3
										{
											OFFSET -3.295807 0.000000 0.000000
											CHANNELS 3 Xrotation Yrotation Zrotation
											End Site
											{
												OFFSET 1.281006 3.013344 0.375733
											}
										}
									}
								}
								JOINT RightHandPinky1
								{
									OFFSET -10.518692 -0.960396 -5.730441
									CHANNELS 3 Xrotation Yrotation Zrotation
									JOINT RightHandPinky2
									{
										OFFSET -2.861649 0.000000 0.000000
										CHANNELS 3 Xrotation Yrotation Zrotation
										JOINT RightHandPinky3
										{
											OFFSET -2.863380 0.000000 0.000000
											CHANNELS 3 Xrotation Yrotation Zrotation
											End Site
											{
												OFFSET 0.843597 2.711159 0.369971
											}
										}
									}
								}
							}
							JOINT RSleeve
							{
								OFFSET -6.676277 -0.344902 -1.011730
								CHANNELS 3 Xrotation Yrotation Zrotation
								End Site
								{
									OFFSET 0.000000 14.885353 0.000000
								}
							}
						}
					}
				}
				JOINT Backpack
				{
					OFFSET 0.000000 -2.471497 36.677502
					CHANNELS 3 Xrotation Yrotation Zrotation
					End Site
					{
						OFFSET 0.000000 20.427315 0.000000
					}
				}
				JOINT Hood
				{
					OFFSET 0.000000 18.754097 -10.431000
					CHANNELS 3 Xrotation Yrotation Zrotation
					JOINT Hood1
					{
						OFFSET 0.000000 -5.011002 -7.685901
						CHANNELS 3 Xrotation Yrotation Zrotation
						End Site
						{
							OFFSET 0.000000 9.175140 0.000000
						}
					}
				}
				JOINT LHoodieString
				{
					OFFSET 5.250500 16.397697 3.089900
					CHANNELS 3 Xrotation Yrotation Zrotation
					JOINT LHoodieString1
					{
						OFFSET 0.257700 -6.364304 3.694600
						CHANNELS 3 Xrotation Yrotation Zrotation
						JOINT LHoodieString2
						{
							OFFSET 0.000000 -9.643799 2.679100
							CHANNELS 3 Xrotation Yrotation Zrotation
							End Site
							{
								OFFSET 0.000000 10.009018 0.000000
							}
						}
					}
				}
				JOINT RHoodieString
				{
					OFFSET -5.250500 16.397697 3.089900
					CHANNELS 3 Xrotation Yrotation Zrotation
					JOINT RHoodieString1
					{
						OFFSET -0.257700 -6.364304 3.694600
						CHANNELS 3 Xrotation Yrotation Zrotation
						JOINT RHoodieString2
						{
							OFFSET 0.000000 -9.643799 2.679100
							CHANNELS 3 Xrotation Yrotation Zrotation
							End Site
							{
								OFFSET 0.000000 10.009018 0.000000
							}
						}
					}
				}
			}
			JOINT LBackpack_Strap
			{
				OFFSET 15.223200 -7.719803 -6.610900
				CHANNELS 3 Xrotation Yrotation Zrotation
				End Site
				{
					OFFSET 0.000000 16.040596 0.000000
				}
			}
			JOINT RBackpack_Strap
			{
				OFFSET -15.223000 -7.719803 -6.610900
				CHANNELS 3 Xrotation Yrotation Zrotation
				End Site
				{
					OFFSET 0.000000 16.040596 0.000000
				}
			}
		}
	}
	JOINT BoyFacialAnim_Joint
	{
		OFFSET 1.000000 -82.208099 -1.550900
		CHANNELS 3 Xrotation Yrotation Zrotation
		End Site
		{
			OFFSET 0.000000 30.012791 0.000000
		}
	}
}
MOTION
Frames: 4
Frame Time: 0.033333
-0.754443 133.191483 -0.302113 -21.161326 -31.755865 4.455736 0.000000 -0.000001 0.000001 -82.096750 1.798481 19.498925 123.391165 -0.932910 -0.208040 7.693394 -0.249419 -16.313277 0.000001 0.000000 -0.000000 0.000001 0.000000 -0.000000 0.000001 0.000001 -0.000000 -79.317231 0.551933 -25.103694 126.764445 14.473663 0.926053 38.795246 6.340520 22.872041 -0.000000 -0.000003 -0.000002 -0.000000 -0.000003 -0.000002 0.000001 0.000003 -0.000002 14.756072 -1.266791 -5.173559 29.514525 -1.721864 -6.705814 29.514518 -1.721857 -6.705819 1.865628 4.451087 -6.518801 2.113175 7.328641 1.554790 -0.000006 -0.000000 -0.000000 -0.000006 -0.000000 -0.000000 -0.000006 -0.000000 -0.000000 -4.113445 1.671423 0.666216 -27.705807 8.108544 5.973642 -11.421868 -18.011581 -9.829084 -3.601898 -16.375607 34.301702 9.163557 4.814023 -5.499043 -0.335315 0.032536 0.783610 -0.000003 -0.000003 0.000002 -0.901929 -6.981020 -3.808487 0.033468 0.804224 -16.419143 0.000000 -0.000003 -0.000002 1.947806 9.683028 -14.539980 -0.456480 -1.565354 -21.881319 0.000002 -0.000001 -0.000002 2.605820 14.896822 -31.345490 -0.576909 -2.712307 -32.011867 -0.000001 -0.000001 -0.000002 4.170549 18.495061 -34.987613 -0.706824 -5.788545 -39.373264 0.000002 -0.000001 0.000005 0.000002 0.000005 -0.000002 -5.378295 -12.971059 -1.368853 -23.271037 -14.249970 -1.670308 -4.396303 27.833176 3.351025 1.715187 5.883049 -37.145516 -8.895849 -4.903084 -0.383542 7.904887 -19.192502 -2.856716 -0.000000 0.000003 0.000002 -1.085524 -1.215505 4.525198 0.142116 -1.115671 16.942493 -0.000000 -0.000000 0.000004 -0.663657 -2.903953 12.731480 -0.660579 1.813273 30.578750 0.000001 -0.000000 -0.000000 2.423610 -7.404607 21.763196 -0.989752 3.764168 37.430915 -0.000002 0.000001 0.000000 3.481029 -10.055133 24.322649 -1.458351 7.871819 41.091716 0.000001 -0.000001 0.000002 0.000002 -0.000003 0.000001 -0.000003 -0.000001 0.000002 -0.000003 -0.000001 0.000002 -0.000003 -0.000001 0.000002 -0.000003 -0.000001 0.000002 -0.000003 -0.000001 0.000002 0.000000 0.000001 -0.000001 -0.000003 -0.000001 0.000002 -0.000003 -0.000001 0.000002 0.000000 0.000001 -0.000001 0.000001 -0.000002 0.000000 0.000001 -0.000002 0.000000 0.000000 -0.000001 0.000001 
-1.250453 139.649292 5.203611 -9.115294 -30.539572 6.130831 -0.000001 0.000000 -0.000000 -80.692545 2.450686 19.200266 121.770634 -0.682396 -0.373526 8.611181 -0.514519 -15.599087 0.000003 0.000000 0.000000 0.000003 0.000000 0.000000 -0.000001 -0.000000 -0.000000 -75.721055 -2.043245 -24.249215 125.765188 15.576173 -1.239884 39.166562 6.474710 22.840398 0.000000 0.000000 -0.000000 0.000000 0.000000 -0.000000 0.000003 0.000002 -0.000004 12.088509 -0.264530 -5.515948 24.171051 -0.082644 -7.589366 24.171051 -0.082647 -7.589366 7.314104 4.056775 -6.693634 -3.019898 7.443096 1.946260 0.000001 -0.000000 -0.000001 0.000001 -0.000000 -0.000001 0.000001 -0.000000 -0.000001 -3.800237 1.238801 1.317620 -29.605557 18.332911 15.013645 -14.046038 -46.085161 -13.614146 -2.482481 -4.849057 33.633194 9.083291 8.757113 -3.495738 0.852264 6.284212 0.582044 -0.000001 -0.000002 0.000001 -0.886600 -6.894004 -11.498661 -0.024316 0.825072 -20.179362 0.000001 0.000000 -0.000002 1.615706 8.782714 -23.126351 -0.625226 -1.903026 -26.369564 0.000003 -0.000001 0.000000 1.973298 14.174650 -40.346303 -0.765536 -3.067353 -36.746496 0.000001 -0.000003 0.000001 2.970346 17.341577 -45.807063 -1.128489 -6.315011 -45.493643 0.000002 -0.000002 -0.000002 0.000002 -0.000001 0.000001 -4.832502 -10.162296 -1.372862 -24.977857 -14.106019 5.055185 -9.478344 17.403867 1.148358 6.461560 13.493392 -28.619852 -9.580560 -4.013373 -0.915527 6.889985 -17.346191 -2.896516 0.000003 -0.000003 -0.000001 -1.248552 -1.071654 4.481478 0.012727 -1.069104 17.357000 -0.000002 0.000001 0.000002 -0.824753 -2.890033 12.380617 -0.691611 1.751326 30.252936 0.000000 0.000000 -0.000002 2.256643 -7.567506 20.844767 -0.862271 3.718649 36.676623 -0.000000 -0.000000 0.000000 3.299475 -10.345436 23.384423 -1.228198 7.776999 40.192187 -0.000000 0.000002 -0.000005 0.000001 0.000000 -0.000000 -0.000001 -0.000001 0.000001 -0.000001 -0.000001 0.000001 -0.000001 -0.000001 0.000001 -0.000001 -0.000001 0.000001 -0.000001 -0.000001 0.000002 0.000002 0.000000 -0.000000 -0.000001 -0.000001 0.000001 -0.000001 -0.000001 0.000002 0.000002 0.000000 -0.000000 0.000002 -0.000001 -0.000001 0.000002 -0.000001 -0.000001 -0.000001 0.000000 -0.000000 
-1.943687 145.171204 10.105009 2.830455 -27.261915 7.552188 -0.000000 0.000000 0.000000 -78.409431 3.300221 18.822758 120.525614 -0.415554 -0.576276 10.509921 -0.969117 -14.209847 0.000003 -0.000000 -0.000000 0.000003 -0.000000 0.000000 -0.000001 0.000000 0.000001 -71.035668 -4.876608 -23.289051 121.949845 12.282101 -4.533120 39.518710 6.453117 22.038685 -0.000001 0.000000 -0.000001 -0.000001 0.000000 -0.000001 0.000001 -0.000000 -0.000000 7.849914 0.682253 -5.480129 15.706691 1.475614 -7.970615 15.706691 1.475614 -7.970620 11.989883 3.676795 -5.902937 -8.592075 7.862218 1.658392 0.000000 0.000000 -0.000000 0.000000 0.000000 -0.000000 0.000000 0.000000 -0.000000 -3.630619 1.248372 1.601971 -34.417873 5.852494 25.144909 -13.336432 -56.662607 -13.142342 -1.817070 -0.381552 33.049489 7.035905 10.181948 -1.141340 0.688042 9.829792 0.052825 -0.000000 -0.000003 -0.000002 -0.851137 -6.801339 -19.717974 -0.067147 0.855321 -24.519857 -0.000003 -0.000000 -0.000002 1.186162 7.923930 -31.703389 -0.835364 -2.254932 -31.246855 0.000001 0.000001 -0.000001 1.327189 13.600463 -48.065715 -0.980906 -3.402476 -41.484100 -0.000001 0.000001 -0.000002 2.035313 16.659238 -52.267927 -1.476706 -6.687859 -50.246949 -0.000001 0.000000 0.000005 0.000001 0.000001 -0.000001 -4.690107 -10.780451 -3.324026 -26.443327 -19.850207 12.040223 -14.685950 42.420901 1.396473 1.564783 5.275009 -14.649280 -10.980718 -1.862273 -1.558694 4.511939 -12.703897 -2.963379 -0.000001 0.000001 -0.000001 -1.437623 -0.827223 2.235035 -0.146985 -0.975823 16.675301 -0.000002 0.000001 0.000002 -0.976993 -3.025171 9.519850 -0.669417 1.578315 27.978559 0.000002 0.000001 0.000000 2.165538 -8.042590 17.045919 -0.588760 3.477726 33.692415 0.000000 -0.000000 0.000000 3.266589 -11.116250 19.606654 -0.743118 7.382283 37.042496 0.000000 -0.000001 0.000002 -0.000000 0.000000 -0.000000 0.000000 0.000000 0.000000 0.000000 0.000000 0.000000 0.000000 0.000000 0.000000 0.000000 0.000000 0.000000 0.000000 0.000000 0.000000 0.000000 0.000000 -0.000001 0.000000 0.000000 0.000000 0.000000 0.000000 0.000000 0.000000 0.000000 -0.000001 0.000001 -0.000001 -0.000000 0.000001 -0.000001 -0.000000 -0.000000 0.000000 0.000000 
-2.717783 149.577545 15.393852 13.594770 -22.415871 7.749676 -0.000000 -0.000001 0.000001 -75.545273 4.309770 18.339150 118.996293 -0.147087 -0.767344 12.866271 -1.487467 -12.337332 0.000001 0.000000 -0.000000 0.000001 0.000000 -0.000000 -0.000000 0.000000 -0.000000 -66.048107 -8.029168 -22.206596 117.083062 4.186392 -9.944592 40.040840 6.343657 20.706086 0.000000 -0.000000 -0.000002 0.000000 -0.000000 -0.000002 0.000001 -0.000001 -0.000003 3.346841 1.340337 -5.182821 6.721871 2.577296 -7.864130 6.721860 2.577303 -7.864125 14.686174 3.065740 -4.283618 -13.025573 8.729767 -1.089404 0.000002 0.000000 -0.000000 0.000002 0.000000 -0.000000 0.000002 0.000000 -0.000000 -1.919634 -3.947026 9.187553 -34.619688 -7.833266 19.753448 -10.408775 -60.623065 -7.998603 1.641416 3.558140 23.582801 0.186732 3.401695 2.165359 -3.965658 5.261284 -0.657336 -0.000001 -0.000001 -0.000003 -0.819830 -6.761646 -25.280161 -0.128940 0.861232 -27.699890 -0.000001 0.000000 -0.000004 0.887177 7.379281 -35.556281 -0.987061 -2.460397 -34.189513 -0.000000 -0.000000 -0.000003 1.221596 13.568056 -46.666561 -1.006478 -3.510708 -42.755502 -0.000001 0.000000 -0.000002 2.387737 17.052742 -44.928701 -0.921457 -6.265959 -44.697212 -0.000001 0.000002 -0.000003 0.000000 0.000000 -0.000000 -4.608702 -10.736270 -4.016051 -28.565147 -16.557801 12.222148 -12.998676 62.592789 5.041752 -9.513256 2.075186 -8.138975 -12.776266 1.094164 -2.204137 1.490785 -6.669343 -2.793647 -0.000001 -0.000001 -0.000001 -1.635963 -0.517769 -1.437225 -0.325650 -0.850268 15.231313 0.000001 0.000001 0.000000 -1.140910 -3.253383 5.133852 -0.622973 1.330101 24.471234 0.000001 0.000001 0.000002 2.070878 -8.705747 11.630661 -0.251791 3.105686 29.387777 -0.000002 -0.000001 0.000000 3.247261 -12.180017 14.231581 -0.145271 6.781077 32.565645 0.000000 0.000001 -0.000001 -0.000000 -0.000003 0.000002 0.000001 0.000000 -0.000001 0.000001 0.000000 -0.000001 0.000001 0.000000 -0.000001 0.000001 0.000000 -0.000001 0.000001 0.000000 -0.000000 -0.000002 0.000000 0.000000 0.000001 0.000000 -0.000001 0.000001 0.000000 -0.000000 -0.000002 0.000000 0.000000 0.000000 0.000001 -0.000000 0.000000 0.000001 -0.000000 -0.000000 -0.000001 0.000001 
